  0
SECTION
  2
HEADER
  9
$ACADVER
  1
AC1009
  9
$DWGCODEPAGE
  3
ansi_1255
  9
$INSBASE
 10
0.0
 20
0.0
 30
0.0
  9
$EXTMIN
 10
1.000000000000000E+20
 20
1.000000000000000E+20
 30
1.000000000000000E+20
  9
$EXTMAX
 10
-1.000000000000000E+20
 20
-1.000000000000000E+20
 30
-1.000000000000000E+20
  9
$LIMMIN
 10
0.0
 20
0.0
  9
$LIMMAX
 10
12.0
 20
9.0
  9
$ORTHOMODE
 70
     0
  9
$REGENMODE
 70
     1
  9
$FILLMODE
 70
     1
  9
$QTEXTMODE
 70
     0
  9
$MIRRTEXT
 70
     1
  9
$DRAGMODE
 70
     2
  9
$LTSCALE
 40
1.0
  9
$OSMODE
 70
    37
  9
$ATTMODE
 70
     1
  9
$TEXTSIZE
 40
0.2
  9
$TRACEWID
 40
0.05
  9
$TEXTSTYLE
  7
STANDARD
  9
$CLAYER
  8
0
  9
$CELTYPE
  6
BYLAYER
  9
$CECOLOR
 62
   256
  9
$DIMSCALE
 40
1.0
  9
$DIMASZ
 40
0.18
  9
$DIMEXO
 40
0.0625
  9
$DIMDLI
 40
0.38
  9
$DIMRND
 40
0.0
  9
$DIMDLE
 40
0.0
  9
$DIMEXE
 40
0.18
  9
$DIMTP
 40
0.0
  9
$DIMTM
 40
0.0
  9
$DIMTXT
 40
0.18
  9
$DIMCEN
 40
0.09
  9
$DIMTSZ
 40
0.0
  9
$DIMTOL
 70
     0
  9
$DIMLIM
 70
     0
  9
$DIMTIH
 70
     1
  9
$DIMTOH
 70
     1
  9
$DIMSE1
 70
     0
  9
$DIMSE2
 70
     0
  9
$DIMTAD
 70
     0
  9
$DIMZIN
 70
     0
  9
$DIMBLK
  1

  9
$DIMASO
 70
     1
  9
$DIMSHO
 70
     1
  9
$DIMPOST
  1

  9
$DIMAPOST
  1

  9
$DIMALT
 70
     0
  9
$DIMALTD
 70
     2
  9
$DIMALTF
 40
25.4
  9
$DIMLFAC
 40
1.0
  9
$DIMTOFL
 70
     0
  9
$DIMTVP
 40
0.0
  9
$DIMTIX
 70
     0
  9
$DIMSOXD
 70
     0
  9
$DIMSAH
 70
     0
  9
$DIMBLK1
  1

  9
$DIMBLK2
  1

  9
$DIMSTYLE
  2
STANDARD
  9
$DIMCLRD
 70
     0
  9
$DIMCLRE
 70
     0
  9
$DIMCLRT
 70
     0
  9
$DIMTFAC
 40
1.0
  9
$DIMGAP
 40
0.09
  9
$LUNITS
 70
     2
  9
$LUPREC
 70
     4
  9
$SKETCHINC
 40
0.1
  9
$FILLETRAD
 40
0.5
  9
$AUNITS
 70
     0
  9
$AUPREC
 70
     0
  9
$MENU
  1
.
  9
$ELEVATION
 40
0.0
  9
$PELEVATION
 40
0.0
  9
$THICKNESS
 40
0.0
  9
$LIMCHECK
 70
     0
  9
$CHAMFERA
 40
0.5
  9
$CHAMFERB
 40
0.5
  9
$SKPOLY
 70
     0
  9
$TDCREATE
 40
2454907.530185672
  9
$TDUPDATE
 40
2454907.530185672
  9
$TDINDWG
 40
0.0000000116
  9
$TDUSRTIMER
 40
0.0000000116
  9
$USRTIMER
 70
     1
  9
$ANGBASE
 50
0.0
  9
$ANGDIR
 70
     0
  9
$PDMODE
 70
     0
  9
$PDSIZE
 40
0.0
  9
$PLINEWID
 40
0.0
  9
$COORDS
 70
     1
  9
$SPLFRAME
 70
     0
  9
$SPLINETYPE
 70
     6
  9
$SPLINESEGS
 70
     8
  9
$ATTDIA
 70
     0
  9
$ATTREQ
 70
     1
  9
$HANDLING
 70
     1
  9
$HANDSEED
  5
84
  9
$SURFTAB1
 70
     6
  9
$SURFTAB2
 70
     6
  9
$SURFTYPE
 70
     6
  9
$SURFU
 70
     6
  9
$SURFV
 70
     6
  9
$UCSNAME
  2

  9
$UCSORG
 10
0.0
 20
0.0
 30
0.0
  9
$UCSXDIR
 10
1.0
 20
0.0
 30
0.0
  9
$UCSYDIR
 10
0.0
 20
1.0
 30
0.0
  9
$PUCSNAME
  2

  9
$PUCSORG
 10
0.0
 20
0.0
 30
0.0
  9
$PUCSXDIR
 10
1.0
 20
0.0
 30
0.0
  9
$PUCSYDIR
 10
0.0
 20
1.0
 30
0.0
  9
$USERI1
 70
     0
  9
$USERI2
 70
     0
  9
$USERI3
 70
     0
  9
$USERI4
 70
     0
  9
$USERI5
 70
     0
  9
$USERR1
 40
0.0
  9
$USERR2
 40
0.0
  9
$USERR3
 40
0.0
  9
$USERR4
 40
0.0
  9
$USERR5
 40
0.0
  9
$WORLDVIEW
 70
     1
  9
$SHADEDGE
 70
     3
  9
$SHADEDIF
 70
    70
  9
$TILEMODE
 70
     1
  9
$MAXACTVP
 70
    64
  9
$PLIMCHECK
 70
     0
  9
$PEXTMIN
 10
1.000000000000000E+20
 20
1.000000000000000E+20
 30
1.000000000000000E+20
  9
$PEXTMAX
 10
-1.000000000000000E+20
 20
-1.000000000000000E+20
 30
-1.000000000000000E+20
  9
$PLIMMIN
 10
0.0
 20
0.0
  9
$PLIMMAX
 10
12.0
 20
9.0
  9
$UNITMODE
 70
     0
  9
$VISRETAIN
 70
     1
  9
$PLINEGEN
 70
     0
  9
$PSLTSCALE
 70
     1
  0
ENDSEC
  0
SECTION
  2
TABLES
  0
TABLE
  2
VPORT
 70
     1
  0
VPORT
  2
*ACTIVE
 70
     0
 10
0.0
 20
0.0
 11
1.0
 21
1.0
 12
0.0
 22
166.4522046103883
 13
0.0
 23
0.0
 14
0.5
 24
0.5
 15
0.5
 25
0.5
 16
0.0
 26
0.0
 36
1.0
 17
0.0
 27
0.0
 37
0.0
 40
382.9044092207766
 41
1.194390680739925
 42
50.0
 43
0.0
 44
0.0
 50
0.0
 51
0.0
 71
     0
 72
   100
 73
     1
 74
     3
 75
     0
 76
     0
 77
     0
 78
     0
  0
ENDTAB
  0
TABLE
  2
LTYPE
 70
     1
  0
LTYPE
  2
CONTINUOUS
 70
     0
  3
Solid line
 72
    65
 73
     0
 40
0.0
  0
ENDTAB
  0
TABLE
  2
LAYER
 70
     1
  0
LAYER
  2
0
 70
     0
 62
     7
  6
CONTINUOUS
  0
ENDTAB
  0
TABLE
  2
STYLE
 70
     1
  0
STYLE
  2
STANDARD
 70
     0
 40
0.0
 41
1.0
 50
0.0
 71
     0
 42
0.2
  3
txt
  4

  0
ENDTAB
  0
TABLE
  2
VIEW
 70
     0
  0
ENDTAB
  0
TABLE
  2
UCS
 70
     0
  0
ENDTAB
  0
TABLE
  2
APPID
 70
     2
  0
APPID
  2
ACAD
 70
     0
  0
APPID
  2
ODA
 70
     0
  0
ENDTAB
  0
TABLE
  2
DIMSTYLE
 70
     1
  0
DIMSTYLE
  2
STANDARD
 70
     0
  3

  4

  5

  6

  7

 40
1.0
 41
0.18
 42
0.0625
 43
0.38
 44
0.18
 45
0.0
 46
0.0
 47
0.0
 48
0.0
140
0.18
141
0.09
142
0.0
143
25.4
144
1.0
145
0.0
146
1.0
147
0.09
 71
     0
 72
     0
 73
     1
 74
     1
 75
     0
 76
     0
 77
     0
 78
     0
170
     0
171
     2
172
     0
173
     0
174
     0
175
     0
176
     0
177
     0
178
     0
  0
ENDTAB
  0
ENDSEC
  0
SECTION
  2
BLOCKS
  0
BLOCK
  8
0
  2
$MODEL_SPACE
 70
     0
 10
0.0
 20
0.0
 30
0.0
  3
$MODEL_SPACE
  1

  0
ENDBLK
  5
21
  8
0
  0
BLOCK
 67
     1
  8
0
  2
$PAPER_SPACE
 70
     0
 10
0.0
 20
0.0
 30
0.0
  3
$PAPER_SPACE
  1

  0
ENDBLK
  5
1D
 67
     1
  8
0
  0
ENDSEC
  0
SECTION
  2
ENTITIES
  0
ARC
  5
5E
  8
0
 10
174.7990501352832
 20
0.2000000001425633
 30
0.0
 40
0.2
 50
114.3835323854097
 51
269.9999999897105
  0
ARC
  5
5F
  8
0
 10
170.505486373044
 20
0.2000000001427907
 30
0.0
 40
0.2
 50
269.9999999897105
 51
65.61646761456346
  0
CIRCLE
  5
60
  8
0
 10
423.7024799491128
 20
160.9715610325429
 30
0.0
 40
6.000000000000001
  0
CIRCLE
  5
61
  8
0
 10
426.4219808234034
 20
210.8975494052809
 30
0.0
 40
6.000000000000001
  0
CIRCLE
  5
62
  8
0
 10
16.6901637627343
 20
253.5998984775513
 30
0.0
 40
6.000000000000001
  0
CIRCLE
  5
63
  8
0
 10
148.9054873456525
 20
35.56812893663346
 30
0.0
 40
5.0
  0
CIRCLE
  5
64
  8
0
 10
12.20931785953735
 20
83.65896162008949
 30
0.0
 40
6.000000000000001
  0
CIRCLE
  5
65
  8
0
 10
48.07051130423088
 20
260.2931699359463
 30
0.0
 40
6.000000000000001
  0
CIRCLE
  5
66
  8
0
 10
35.10111121478531
 20
42.67550374292341
 30
0.0
 40
5.0
  0
CIRCLE
  5
67
  8
0
 10
290.5339992280933
 20
146.3974425997499
 30
0.0
 40
4.0
  0
ARC
  5
68
  8
0
 10
55.24472902015259
 20
155.5962328943028
 30
0.0
 40
15.0
 50
84.2706281104565
 51
173.1994501990895
  0
ARC
  5
69
  8
0
 10
88.08561750739682
 20
152.3012724167447
 30
0.0
 40
15.0
 50
353.1994501785114
 51
84.27062811046176
  0
ARC
  5
6A
  8
0
 10
86.90127556865446
 20
142.3698931170327
 30
0.0
 40
15.0
 50
264.2706280898776
 51
353.1994501785141
  0
ARC
  5
6B
  8
0
 10
54.06038708141023
 20
145.664853594591
 30
0.0
 40
15.0
 50
173.1994501990886
 51
264.2706280898794
  0
ARC
  5
6C
  8
0
 10
382.1532801480034
 20
188.2718334880299
 30
0.0
 40
20.00081163193908
 50
45.46988460349752
 51
308.2944014041157
  0
ARC
  5
6D
  8
0
 10
400.1101745594101
 20
-54.3007860179132
 30
0.0
 40
177.6654468771772
 50
87.9922198248311
 51
117.7491252119883
  0
ARC
  5
6E
  8
0
 10
321.5198519373121
 20
-7.247306148430653
 30
0.0
 40
110.256918386421
 50
92.14714770170194
 51
147.4070114007793
  0
ARC
  5
6F
  8
0
 10
624.1725556989172
 20
-242.7193714411494
 30
0.0
 40
493.3573763796766
 50
143.2969393205565
 51
150.5295410598091
  0
ARC
  5
70
  8
0
 10
172.652268254164
 20
4.936172247316108
 30
0.0
 40
5.0
 50
294.3835323751377
 51
245.6164676042736
  0
LINE
  5
71
  8
0
 10
40.35026344201697
 20
157.3724353438329
 30
0.0
 11
39.16592150327415
 21
147.4410560441215
 31
0.0
  0
LINE
  5
72
  8
0
 10
56.74217659251099
 20
170.5213007590744
 30
0.0
 11
89.5830650797543
 21
167.2263402815163
 31
0.0
  0
LINE
  5
73
  8
0
 10
102.9800830855329
 20
150.5250699672149
 30
0.0
 11
101.7957411467901
 21
140.5936906675038
 31
0.0
  0
LINE
  5
74
  8
0
 10
52.56293950905228
 20
130.7397857298197
 30
0.0
 11
85.40382799629606
 21
127.4448252522616
 31
0.0
  0
LINE
  5
75
  8
0
 10
396.1795305534674
 20
202.5300509607569
 30
0.0
 11
457.3374579875222
 21
199.1987391019904
 31
0.0
  0
LINE
  5
76
  8
0
 10
394.5478300288951
 20
172.5744579371139
 30
0.0
 11
456.6652909342288
 21
169.1908796696271
 31
0.0
  0
LINE
  5
77
  8
0
 10
456.6652909342288
 20
169.1908796696271
 30
0.0
 11
454.0844911825225
 21
132.16254793293
 31
0.0
  0
LINE
  5
78
  8
0
 10
454.0844911825225
 20
132.16254793293
 30
0.0
 11
406.334719616179
 21
123.2555882774202
 31
0.0
  0
LINE
  5
79
  8
0
 10
194.6509525688712
 20
0.0000000001425633
 30
0.0
 11
174.7990501352832
 21
0.0000000001425633
 31
0.0
  0
LINE
  5
7A
  8
0
 10
170.505486373044
 20
0.0000000001427907
 30
0.0
 11
0.0
 21
0.0000000001425633
 31
0.0
  0
LINE
  5
7B
  8
0
 10
8.777716457243514
 20
332.9044092209081
 30
0.0
 11
0.0
 21
0.0000000001425633
 31
0.0
  0
LINE
  5
7C
  8
0
 10
8.777716457243514
 20
332.9044092209081
 30
0.0
 11
38.24435855328329
 21
326.4329554490917
 31
0.0
  0
LINE
  5
7D
  8
0
 10
138.9189610337321
 20
311.6687501498704
 30
0.0
 11
38.24435855328329
 21
326.4329554490917
 31
0.0
  0
LINE
  5
7E
  8
0
 10
457.3374579875222
 20
274.524693332088
 30
0.0
 11
138.9189610337321
 21
311.6687501498704
 31
0.0
  0
LINE
  5
7F
  8
0
 10
457.3374579875222
 20
199.1987391019904
 30
0.0
 11
457.3374579875222
 21
274.524693332088
 31
0.0
  0
ENDSEC
  0
EOF
