  0
SECTION
  2
HEADER
  9
$ACADVER
  1
AC1009
  9
$DWGCODEPAGE
  3
ansi_1255
  9
$INSBASE
 10
0.0
 20
0.0
 30
0.0
  9
$EXTMIN
 10
1.000000000000000E+20
 20
1.000000000000000E+20
 30
1.000000000000000E+20
  9
$EXTMAX
 10
-1.000000000000000E+20
 20
-1.000000000000000E+20
 30
-1.000000000000000E+20
  9
$LIMMIN
 10
0.0
 20
0.0
  9
$LIMMAX
 10
12.0
 20
9.0
  9
$ORTHOMODE
 70
     0
  9
$REGENMODE
 70
     1
  9
$FILLMODE
 70
     1
  9
$QTEXTMODE
 70
     0
  9
$MIRRTEXT
 70
     1
  9
$DRAGMODE
 70
     2
  9
$LTSCALE
 40
1.0
  9
$OSMODE
 70
    37
  9
$ATTMODE
 70
     1
  9
$TEXTSIZE
 40
0.2
  9
$TRACEWID
 40
0.05
  9
$TEXTSTYLE
  7
STANDARD
  9
$CLAYER
  8
0
  9
$CELTYPE
  6
BYLAYER
  9
$CECOLOR
 62
   256
  9
$DIMSCALE
 40
1.0
  9
$DIMASZ
 40
0.18
  9
$DIMEXO
 40
0.0625
  9
$DIMDLI
 40
0.38
  9
$DIMRND
 40
0.0
  9
$DIMDLE
 40
0.0
  9
$DIMEXE
 40
0.18
  9
$DIMTP
 40
0.0
  9
$DIMTM
 40
0.0
  9
$DIMTXT
 40
0.18
  9
$DIMCEN
 40
0.09
  9
$DIMTSZ
 40
0.0
  9
$DIMTOL
 70
     0
  9
$DIMLIM
 70
     0
  9
$DIMTIH
 70
     1
  9
$DIMTOH
 70
     1
  9
$DIMSE1
 70
     0
  9
$DIMSE2
 70
     0
  9
$DIMTAD
 70
     0
  9
$DIMZIN
 70
     0
  9
$DIMBLK
  1

  9
$DIMASO
 70
     1
  9
$DIMSHO
 70
     1
  9
$DIMPOST
  1

  9
$DIMAPOST
  1

  9
$DIMALT
 70
     0
  9
$DIMALTD
 70
     2
  9
$DIMALTF
 40
25.4
  9
$DIMLFAC
 40
1.0
  9
$DIMTOFL
 70
     0
  9
$DIMTVP
 40
0.0
  9
$DIMTIX
 70
     0
  9
$DIMSOXD
 70
     0
  9
$DIMSAH
 70
     0
  9
$DIMBLK1
  1

  9
$DIMBLK2
  1

  9
$DIMSTYLE
  2
STANDARD
  9
$DIMCLRD
 70
     0
  9
$DIMCLRE
 70
     0
  9
$DIMCLRT
 70
     0
  9
$DIMTFAC
 40
1.0
  9
$DIMGAP
 40
0.09
  9
$LUNITS
 70
     2
  9
$LUPREC
 70
     4
  9
$SKETCHINC
 40
0.1
  9
$FILLETRAD
 40
0.5
  9
$AUNITS
 70
     0
  9
$AUPREC
 70
     0
  9
$MENU
  1
.
  9
$ELEVATION
 40
0.0
  9
$PELEVATION
 40
0.0
  9
$THICKNESS
 40
0.0
  9
$LIMCHECK
 70
     0
  9
$CHAMFERA
 40
0.5
  9
$CHAMFERB
 40
0.5
  9
$SKPOLY
 70
     0
  9
$TDCREATE
 40
2454907.529244167
  9
$TDUPDATE
 40
2454907.529244167
  9
$TDINDWG
 40
0.0000000116
  9
$TDUSRTIMER
 40
0.0000000116
  9
$USRTIMER
 70
     1
  9
$ANGBASE
 50
0.0
  9
$ANGDIR
 70
     0
  9
$PDMODE
 70
     0
  9
$PDSIZE
 40
0.0
  9
$PLINEWID
 40
0.0
  9
$COORDS
 70
     1
  9
$SPLFRAME
 70
     0
  9
$SPLINETYPE
 70
     6
  9
$SPLINESEGS
 70
     8
  9
$ATTDIA
 70
     0
  9
$ATTREQ
 70
     1
  9
$HANDLING
 70
     1
  9
$HANDSEED
  5
8D
  9
$SURFTAB1
 70
     6
  9
$SURFTAB2
 70
     6
  9
$SURFTYPE
 70
     6
  9
$SURFU
 70
     6
  9
$SURFV
 70
     6
  9
$UCSNAME
  2

  9
$UCSORG
 10
0.0
 20
0.0
 30
0.0
  9
$UCSXDIR
 10
1.0
 20
0.0
 30
0.0
  9
$UCSYDIR
 10
0.0
 20
1.0
 30
0.0
  9
$PUCSNAME
  2

  9
$PUCSORG
 10
0.0
 20
0.0
 30
0.0
  9
$PUCSXDIR
 10
1.0
 20
0.0
 30
0.0
  9
$PUCSYDIR
 10
0.0
 20
1.0
 30
0.0
  9
$USERI1
 70
     0
  9
$USERI2
 70
     0
  9
$USERI3
 70
     0
  9
$USERI4
 70
     0
  9
$USERI5
 70
     0
  9
$USERR1
 40
0.0
  9
$USERR2
 40
0.0
  9
$USERR3
 40
0.0
  9
$USERR4
 40
0.0
  9
$USERR5
 40
0.0
  9
$WORLDVIEW
 70
     1
  9
$SHADEDGE
 70
     3
  9
$SHADEDIF
 70
    70
  9
$TILEMODE
 70
     1
  9
$MAXACTVP
 70
    64
  9
$PLIMCHECK
 70
     0
  9
$PEXTMIN
 10
1.000000000000000E+20
 20
1.000000000000000E+20
 30
1.000000000000000E+20
  9
$PEXTMAX
 10
-1.000000000000000E+20
 20
-1.000000000000000E+20
 30
-1.000000000000000E+20
  9
$PLIMMIN
 10
0.0
 20
0.0
  9
$PLIMMAX
 10
12.0
 20
9.0
  9
$UNITMODE
 70
     0
  9
$VISRETAIN
 70
     1
  9
$PLINEGEN
 70
     0
  9
$PSLTSCALE
 70
     1
  0
ENDSEC
  0
SECTION
  2
TABLES
  0
TABLE
  2
VPORT
 70
     1
  0
VPORT
  2
*ACTIVE
 70
     0
 10
0.0
 20
0.0
 11
1.0
 21
1.0
 12
0.0
 22
155.041687693152
 13
0.0
 23
0.0
 14
0.5
 24
0.5
 15
0.5
 25
0.5
 16
0.0
 26
0.0
 36
1.0
 17
0.0
 27
0.0
 37
0.0
 40
360.0833753863039
 41
2.896554614434105
 42
50.0
 43
0.0
 44
0.0
 50
0.0
 51
0.0
 71
     0
 72
   100
 73
     1
 74
     3
 75
     0
 76
     0
 77
     0
 78
     0
  0
ENDTAB
  0
TABLE
  2
LTYPE
 70
     1
  0
LTYPE
  2
CONTINUOUS
 70
     0
  3
Solid line
 72
    65
 73
     0
 40
0.0
  0
ENDTAB
  0
TABLE
  2
LAYER
 70
     1
  0
LAYER
  2
0
 70
     0
 62
     7
  6
CONTINUOUS
  0
ENDTAB
  0
TABLE
  2
STYLE
 70
     1
  0
STYLE
  2
STANDARD
 70
     0
 40
0.0
 41
1.0
 50
0.0
 71
     0
 42
0.2
  3
txt
  4

  0
ENDTAB
  0
TABLE
  2
VIEW
 70
     0
  0
ENDTAB
  0
TABLE
  2
UCS
 70
     0
  0
ENDTAB
  0
TABLE
  2
APPID
 70
     2
  0
APPID
  2
ACAD
 70
     0
  0
APPID
  2
ODA
 70
     0
  0
ENDTAB
  0
TABLE
  2
DIMSTYLE
 70
     1
  0
DIMSTYLE
  2
STANDARD
 70
     0
  3

  4

  5

  6

  7

 40
1.0
 41
0.18
 42
0.0625
 43
0.38
 44
0.18
 45
0.0
 46
0.0
 47
0.0
 48
0.0
140
0.18
141
0.09
142
0.0
143
25.4
144
1.0
145
0.0
146
1.0
147
0.09
 71
     0
 72
     0
 73
     1
 74
     1
 75
     0
 76
     0
 77
     0
 78
     0
170
     0
171
     2
172
     0
173
     0
174
     0
175
     0
176
     0
177
     0
178
     0
  0
ENDTAB
  0
ENDSEC
  0
SECTION
  2
BLOCKS
  0
BLOCK
  8
0
  2
$MODEL_SPACE
 70
     0
 10
0.0
 20
0.0
 30
0.0
  3
$MODEL_SPACE
  1

  0
ENDBLK
  5
21
  8
0
  0
BLOCK
 67
     1
  8
0
  2
$PAPER_SPACE
 70
     0
 10
0.0
 20
0.0
 30
0.0
  3
$PAPER_SPACE
  1

  0
ENDBLK
  5
1D
 67
     1
  8
0
  0
ENDSEC
  0
SECTION
  2
ENTITIES
  0
LINE
  5
5E
  8
0
 10
728.420045234374
 20
37.32341889539293
 30
0.0
 11
713.1095653386302
 21
41.46934168469625
 31
0.0
  0
LINE
  5
5F
  8
0
 10
735.1841993499266
 20
11.694184941
 30
0.0
 11
728.420045234374
 21
37.32341889539293
 31
0.0
  0
LINE
  5
60
  8
0
 10
713.1095653386302
 20
41.46934168469625
 30
0.0
 11
640.0000000298729
 21
46.28416469506055
 31
0.0
  0
LINE
  5
61
  8
0
 10
886.8713642145503
 20
23.33497363612969
 30
0.0
 11
735.1841993499266
 21
11.694184941
 31
0.0
  0
LINE
  5
62
  8
0
 10
640.0000000298729
 20
46.28416469506055
 30
0.0
 11
589.1926286146945
 21
44.35830409020764
 31
0.0
  0
LINE
  5
63
  8
0
 10
1041.042526647153
 20
47.44701097431698
 30
0.0
 11
886.8713642145503
 21
23.33497363612969
 31
0.0
  0
LINE
  5
64
  8
0
 10
1041.042526647153
 20
47.44701097431698
 30
0.0
 11
1043.001162556207
 21
269.9302217383993
 31
0.0
  0
LINE
  5
65
  8
0
 10
584.8600840698118
 20
41.49545982096015
 30
0.0
 11
565.281433930519
 21
0.0
 31
0.0
  0
LINE
  5
66
  8
0
 10
843.8157040790658
 20
269.9302217652275
 30
0.0
 11
1043.001162556207
 21
269.9302217383993
 31
0.0
  0
LINE
  5
67
  8
0
 10
565.281433930519
 20
0.0
 30
0.0
 11
93.61618487716794
 21
0.0000000635286597
 31
0.0
  0
LINE
  5
68
  8
0
 10
640.0000000491091
 20
274.8423232598684
 30
0.0
 11
843.8157040790658
 21
269.9302217652275
 31
0.0
  0
LINE
  5
69
  8
0
 10
426.6781566613859
 20
288.1814588115421
 30
0.0
 11
127.5598996117822
 21
286.9071453667511
 31
0.0
  0
LINE
  5
6A
  8
0
 10
0.0000000037198333
 20
55.52733381403414
 30
0.0
 11
0.0000000564000402
 21
310.0833753664087
 31
0.0
  0
LINE
  5
6B
  8
0
 10
0.0000000564000402
 20
310.0833753664087
 30
0.0
 11
60.31673307962615
 21
310.0833753582842
 31
0.0
  0
LINE
  5
6C
  8
0
 10
187.000000017513
 20
155.0000000509408
 30
0.0
 11
187.0000000053909
 21
65.0000000509408
 31
0.0
  0
LINE
  5
6D
  8
0
 10
187.000000017513
 20
155.0000000509408
 30
0.0
 11
87.00000001751346
 21
155.0000000644095
 31
0.0
  0
LINE
  5
6E
  8
0
 10
87.00000001751346
 20
155.0000000644095
 30
0.0
 11
87.00000000539183
 21
65.0000000644095
 31
0.0
  0
LINE
  5
6F
  8
0
 10
187.0000000053909
 20
65.0000000509408
 30
0.0
 11
87.00000000539183
 21
65.0000000644095
 31
0.0
  0
LINE
  5
70
  8
0
 10
145.0000000048528
 20
61.00000005659649
 30
0.0
 11
129.0000000048531
 21
61.00000005875154
 31
0.0
  0
LINE
  5
71
  8
0
 10
145.0000000042468
 20
56.50000005659649
 30
0.0
 11
129.000000004247
 21
56.50000005875154
 31
0.0
  0
LINE
  5
72
  8
0
 10
191.0000000125303
 20
118.000000050401
 30
0.0
 11
191.0000000103739
 21
102.0000000503992
 31
0.0
  0
LINE
  5
73
  8
0
 10
195.5000000125303
 20
118.000000049793
 30
0.0
 11
195.5000000103753
 21
102.000000049793
 31
0.0
  0
LINE
  5
74
  8
0
 10
191.0000000125303
 20
118.000000050401
 30
0.0
 11
195.5000000125303
 21
118.000000049793
 31
0.0
  0
LINE
  5
75
  8
0
 10
191.0000000103739
 20
102.0000000503992
 30
0.0
 11
195.5000000103753
 21
102.000000049793
 31
0.0
  0
LINE
  5
76
  8
0
 10
129.0000000048531
 20
61.00000005875154
 30
0.0
 11
129.000000004247
 21
56.50000005875154
 31
0.0
  0
LINE
  5
77
  8
0
 10
145.0000000048528
 20
61.00000005659649
 30
0.0
 11
145.0000000042468
 21
56.50000005659649
 31
0.0
  0
LINE
  5
78
  8
0
 10
145.0000000180518
 20
159.0000000565988
 30
0.0
 11
129.0000000180518
 21
159.0000000587538
 31
0.0
  0
LINE
  5
79
  8
0
 10
145.0000000186578
 20
163.5000000565988
 30
0.0
 11
129.0000000186578
 21
163.5000000587538
 31
0.0
  0
LINE
  5
7A
  8
0
 10
129.0000000180518
 20
159.0000000587538
 30
0.0
 11
129.0000000186578
 21
163.5000000587538
 31
0.0
  0
LINE
  5
7B
  8
0
 10
145.0000000180518
 20
159.0000000565988
 30
0.0
 11
145.0000000186578
 21
163.5000000565988
 31
0.0
  0
LINE
  5
7C
  8
0
 10
83.00000001252943
 20
118.0000000649475
 30
0.0
 11
83.00000001037438
 21
102.0000000649457
 31
0.0
  0
LINE
  5
7D
  8
0
 10
78.5000000125292
 20
118.0000000655518
 30
0.0
 11
78.50000001037415
 21
102.0000000655518
 31
0.0
  0
LINE
  5
7E
  8
0
 10
83.00000001252943
 20
118.0000000649475
 30
0.0
 11
78.5000000125292
 21
118.0000000655518
 31
0.0
  0
LINE
  5
7F
  8
0
 10
83.00000001037438
 20
102.0000000649457
 30
0.0
 11
78.50000001037415
 21
102.0000000655518
 31
0.0
  0
ARC
  5
80
  8
0
 10
589.3820183138073
 20
39.36189222349094
 30
0.0
 40
5.0
 50
92.17076535912547
 51
154.7408280787079
  0
ARC
  5
81
  8
0
 10
142.6420011391887
 20
363.2840895646077
 30
0.0
 40
366.5772228941469
 50
252.0027017684106
 51
262.314268407188
  0
ARC
  5
82
  8
0
 10
375.8007283954007
 20
-2237.869600179267
 30
0.0
 40
2526.563370536261
 50
83.99768591280703
 51
88.84615641735016
  0
ARC
  5
83
  8
0
 10
57.5489656924708
 20
65.88417371091828
 30
0.0
 40
58.47347761587905
 50
190.2020701225319
 51
241.2007788715044
  0
ARC
  5
84
  8
0
 10
138.3282573276753
 20
427.2875701943462
 30
0.0
 40
140.7928307928836
 50
236.3521243860393
 51
265.6135225791579
  0
CIRCLE
  5
85
  8
0
 10
948.0000000347213
 20
102.9302217511949
 30
0.0
 40
8.0
  0
CIRCLE
  5
86
  8
0
 10
681.7887388855387
 20
133.7945321633861
 30
0.0
 40
5.0
  0
CIRCLE
  5
87
  8
0
 10
47.00000001145281
 20
110.0000000698074
 30
0.0
 40
8.0
  0
CIRCLE
  5
88
  8
0
 10
229.0000000114519
 20
110.0000000452837
 30
0.0
 40
3.0
  0
ENDSEC
  0
EOF
