  0
SECTION
  2
HEADER
  9
$ACADVER
  1
AC1009
  9
$DWGCODEPAGE
  3
ansi_1255
  9
$INSBASE
 10
0.0
 20
0.0
 30
0.0
  9
$EXTMIN
 10
1.000000000000000E+20
 20
1.000000000000000E+20
 30
1.000000000000000E+20
  9
$EXTMAX
 10
-1.000000000000000E+20
 20
-1.000000000000000E+20
 30
-1.000000000000000E+20
  9
$LIMMIN
 10
0.0
 20
0.0
  9
$LIMMAX
 10
12.0
 20
9.0
  9
$ORTHOMODE
 70
     0
  9
$REGENMODE
 70
     1
  9
$FILLMODE
 70
     1
  9
$QTEXTMODE
 70
     0
  9
$MIRRTEXT
 70
     1
  9
$DRAGMODE
 70
     2
  9
$LTSCALE
 40
1.0
  9
$OSMODE
 70
    37
  9
$ATTMODE
 70
     1
  9
$TEXTSIZE
 40
0.2
  9
$TRACEWID
 40
0.05
  9
$TEXTSTYLE
  7
STANDARD
  9
$CLAYER
  8
0
  9
$CELTYPE
  6
BYLAYER
  9
$CECOLOR
 62
   256
  9
$DIMSCALE
 40
1.0
  9
$DIMASZ
 40
0.18
  9
$DIMEXO
 40
0.0625
  9
$DIMDLI
 40
0.38
  9
$DIMRND
 40
0.0
  9
$DIMDLE
 40
0.0
  9
$DIMEXE
 40
0.18
  9
$DIMTP
 40
0.0
  9
$DIMTM
 40
0.0
  9
$DIMTXT
 40
0.18
  9
$DIMCEN
 40
0.09
  9
$DIMTSZ
 40
0.0
  9
$DIMTOL
 70
     0
  9
$DIMLIM
 70
     0
  9
$DIMTIH
 70
     1
  9
$DIMTOH
 70
     1
  9
$DIMSE1
 70
     0
  9
$DIMSE2
 70
     0
  9
$DIMTAD
 70
     0
  9
$DIMZIN
 70
     0
  9
$DIMBLK
  1

  9
$DIMASO
 70
     1
  9
$DIMSHO
 70
     1
  9
$DIMPOST
  1

  9
$DIMAPOST
  1

  9
$DIMALT
 70
     0
  9
$DIMALTD
 70
     2
  9
$DIMALTF
 40
25.4
  9
$DIMLFAC
 40
1.0
  9
$DIMTOFL
 70
     0
  9
$DIMTVP
 40
0.0
  9
$DIMTIX
 70
     0
  9
$DIMSOXD
 70
     0
  9
$DIMSAH
 70
     0
  9
$DIMBLK1
  1

  9
$DIMBLK2
  1

  9
$DIMSTYLE
  2
STANDARD
  9
$DIMCLRD
 70
     0
  9
$DIMCLRE
 70
     0
  9
$DIMCLRT
 70
     0
  9
$DIMTFAC
 40
1.0
  9
$DIMGAP
 40
0.09
  9
$LUNITS
 70
     2
  9
$LUPREC
 70
     4
  9
$SKETCHINC
 40
0.1
  9
$FILLETRAD
 40
0.5
  9
$AUNITS
 70
     0
  9
$AUPREC
 70
     0
  9
$MENU
  1
.
  9
$ELEVATION
 40
0.0
  9
$PELEVATION
 40
0.0
  9
$THICKNESS
 40
0.0
  9
$LIMCHECK
 70
     0
  9
$CHAMFERA
 40
0.5
  9
$CHAMFERB
 40
0.5
  9
$SKPOLY
 70
     0
  9
$TDCREATE
 40
2454907.528526551
  9
$TDUPDATE
 40
2454907.528526551
  9
$TDINDWG
 40
0.0000000116
  9
$TDUSRTIMER
 40
0.0000000116
  9
$USRTIMER
 70
     1
  9
$ANGBASE
 50
0.0
  9
$ANGDIR
 70
     0
  9
$PDMODE
 70
     0
  9
$PDSIZE
 40
0.0
  9
$PLINEWID
 40
0.0
  9
$COORDS
 70
     1
  9
$SPLFRAME
 70
     0
  9
$SPLINETYPE
 70
     6
  9
$SPLINESEGS
 70
     8
  9
$ATTDIA
 70
     0
  9
$ATTREQ
 70
     1
  9
$HANDLING
 70
     1
  9
$HANDSEED
  5
8E
  9
$SURFTAB1
 70
     6
  9
$SURFTAB2
 70
     6
  9
$SURFTYPE
 70
     6
  9
$SURFU
 70
     6
  9
$SURFV
 70
     6
  9
$UCSNAME
  2

  9
$UCSORG
 10
0.0
 20
0.0
 30
0.0
  9
$UCSXDIR
 10
1.0
 20
0.0
 30
0.0
  9
$UCSYDIR
 10
0.0
 20
1.0
 30
0.0
  9
$PUCSNAME
  2

  9
$PUCSORG
 10
0.0
 20
0.0
 30
0.0
  9
$PUCSXDIR
 10
1.0
 20
0.0
 30
0.0
  9
$PUCSYDIR
 10
0.0
 20
1.0
 30
0.0
  9
$USERI1
 70
     0
  9
$USERI2
 70
     0
  9
$USERI3
 70
     0
  9
$USERI4
 70
     0
  9
$USERI5
 70
     0
  9
$USERR1
 40
0.0
  9
$USERR2
 40
0.0
  9
$USERR3
 40
0.0
  9
$USERR4
 40
0.0
  9
$USERR5
 40
0.0
  9
$WORLDVIEW
 70
     1
  9
$SHADEDGE
 70
     3
  9
$SHADEDIF
 70
    70
  9
$TILEMODE
 70
     1
  9
$MAXACTVP
 70
    64
  9
$PLIMCHECK
 70
     0
  9
$PEXTMIN
 10
1.000000000000000E+20
 20
1.000000000000000E+20
 30
1.000000000000000E+20
  9
$PEXTMAX
 10
-1.000000000000000E+20
 20
-1.000000000000000E+20
 30
-1.000000000000000E+20
  9
$PLIMMIN
 10
0.0
 20
0.0
  9
$PLIMMAX
 10
12.0
 20
9.0
  9
$UNITMODE
 70
     0
  9
$VISRETAIN
 70
     1
  9
$PLINEGEN
 70
     0
  9
$PSLTSCALE
 70
     1
  0
ENDSEC
  0
SECTION
  2
TABLES
  0
TABLE
  2
VPORT
 70
     1
  0
VPORT
  2
*ACTIVE
 70
     0
 10
0.0
 20
0.0
 11
1.0
 21
1.0
 12
0.0
 22
155.0416876244146
 13
0.0
 23
0.0
 14
0.5
 24
0.5
 15
0.5
 25
0.5
 16
0.0
 26
0.0
 36
1.0
 17
0.0
 27
0.0
 37
0.0
 40
360.0833752488293
 41
2.896554615413376
 42
50.0
 43
0.0
 44
0.0
 50
0.0
 51
0.0
 71
     0
 72
   100
 73
     1
 74
     3
 75
     0
 76
     0
 77
     0
 78
     0
  0
ENDTAB
  0
TABLE
  2
LTYPE
 70
     1
  0
LTYPE
  2
CONTINUOUS
 70
     0
  3
Solid line
 72
    65
 73
     0
 40
0.0
  0
ENDTAB
  0
TABLE
  2
LAYER
 70
     1
  0
LAYER
  2
0
 70
     0
 62
     7
  6
CONTINUOUS
  0
ENDTAB
  0
TABLE
  2
STYLE
 70
     1
  0
STYLE
  2
STANDARD
 70
     0
 40
0.0
 41
1.0
 50
0.0
 71
     0
 42
0.2
  3
txt
  4

  0
ENDTAB
  0
TABLE
  2
VIEW
 70
     0
  0
ENDTAB
  0
TABLE
  2
UCS
 70
     0
  0
ENDTAB
  0
TABLE
  2
APPID
 70
     2
  0
APPID
  2
ACAD
 70
     0
  0
APPID
  2
ODA
 70
     0
  0
ENDTAB
  0
TABLE
  2
DIMSTYLE
 70
     1
  0
DIMSTYLE
  2
STANDARD
 70
     0
  3

  4

  5

  6

  7

 40
1.0
 41
0.18
 42
0.0625
 43
0.38
 44
0.18
 45
0.0
 46
0.0
 47
0.0
 48
0.0
140
0.18
141
0.09
142
0.0
143
25.4
144
1.0
145
0.0
146
1.0
147
0.09
 71
     0
 72
     0
 73
     1
 74
     1
 75
     0
 76
     0
 77
     0
 78
     0
170
     0
171
     2
172
     0
173
     0
174
     0
175
     0
176
     0
177
     0
178
     0
  0
ENDTAB
  0
ENDSEC
  0
SECTION
  2
BLOCKS
  0
BLOCK
  8
0
  2
$MODEL_SPACE
 70
     0
 10
0.0
 20
0.0
 30
0.0
  3
$MODEL_SPACE
  1

  0
ENDBLK
  5
21
  8
0
  0
BLOCK
 67
     1
  8
0
  2
$PAPER_SPACE
 70
     0
 10
0.0
 20
0.0
 30
0.0
  3
$PAPER_SPACE
  1

  0
ENDBLK
  5
1D
 67
     1
  8
0
  0
ENDSEC
  0
SECTION
  2
ENTITIES
  0
LINE
  5
5E
  8
0
 10
583.0000000150203
 20
248.083375219871
 30
0.0
 11
583.0000000028981
 21
158.083375219871
 31
0.0
  0
LINE
  5
5F
  8
0
 10
583.0000000150203
 20
248.083375219871
 30
0.0
 11
483.0000000150203
 21
248.0833752333392
 31
0.0
  0
LINE
  5
60
  8
0
 10
483.0000000150203
 20
248.0833752333392
 30
0.0
 11
483.0000000028986
 21
158.0833752333392
 31
0.0
  0
LINE
  5
61
  8
0
 10
583.0000000028981
 20
158.083375219871
 30
0.0
 11
483.0000000028986
 21
158.0833752333392
 31
0.0
  0
LINE
  5
62
  8
0
 10
317.9999999980491
 20
122.0833752555623
 30
0.0
 11
0.0000000076220203
 21
122.0833752983949
 31
0.0
  0
LINE
  5
63
  8
0
 10
0.0000000076220203
 20
122.0833752983949
 30
0.0
 11
0.0
 21
0.0000000081231519
 31
0.0
  0
LINE
  5
64
  8
0
 10
0.0
 20
0.0000000081231519
 30
0.0
 11
60.31673302322679
 21
0.0
 31
0.0
  0
LINE
  5
65
  8
0
 10
426.6781566108857
 20
21.90191644805054
 30
0.0
 11
127.5598995616251
 21
23.17622997341869
 31
0.0
  0
LINE
  5
66
  8
0
 10
640.000000002201
 20
35.24105194226058
 30
0.0
 11
843.8157040334818
 21
40.15315338199753
 31
0.0
  0
LINE
  5
67
  8
0
 10
843.8157040334818
 20
40.15315338199753
 30
0.0
 11
1043.001162510623
 21
40.15315335516925
 31
0.0
  0
LINE
  5
68
  8
0
 10
1041.042526661502
 20
262.6363641197795
 30
0.0
 11
1043.001162510623
 21
40.15315335516925
 31
0.0
  0
LINE
  5
69
  8
0
 10
1041.042526661502
 20
262.6363641197795
 30
0.0
 11
886.8713642353941
 21
286.7484014994975
 31
0.0
  0
LINE
  5
6A
  8
0
 10
886.8713642353941
 20
286.7484014994975
 30
0.0
 11
735.1841993739063
 21
298.3891902354885
 31
0.0
  0
LINE
  5
6B
  8
0
 10
735.1841993739063
 20
298.3891902354885
 30
0.0
 11
728.4200452514501
 21
272.7599562829187
 31
0.0
  0
LINE
  5
6C
  8
0
 10
728.4200452514501
 20
272.7599562829187
 30
0.0
 11
713.109565354589
 21
268.614033497739
 31
0.0
  0
LINE
  5
6D
  8
0
 10
713.109565354589
 20
268.614033497739
 30
0.0
 11
640.0000000445348
 21
263.7992105070684
 31
0.0
  0
LINE
  5
6E
  8
0
 10
640.0000000445348
 20
263.7992105070684
 30
0.0
 11
589.1926286298753
 21
265.7250711256083
 31
0.0
  0
LINE
  5
6F
  8
0
 10
584.8600840857634
 20
268.5879153960232
 30
0.0
 11
565.2814339576485
 21
310.0833752222575
 31
0.0
  0
LINE
  5
70
  8
0
 10
565.2814339576485
 20
310.0833752222575
 30
0.0
 11
368.0000000233708
 21
310.0833752488293
 31
0.0
  0
LINE
  5
71
  8
0
 10
368.0000000233708
 20
310.0833752488293
 30
0.0
 11
368.0000000047839
 21
172.0833752488279
 31
0.0
  0
LINE
  5
72
  8
0
 10
541.0000000023601
 20
154.0833752255257
 30
0.0
 11
525.0000000023597
 21
154.0833752276808
 31
0.0
  0
LINE
  5
73
  8
0
 10
541.000000001754
 20
149.5833752255262
 30
0.0
 11
525.0000000017535
 21
149.5833752276812
 31
0.0
  0
LINE
  5
74
  8
0
 10
587.0000000100372
 20
211.0833752193298
 30
0.0
 11
587.0000000078821
 21
195.083375219328
 31
0.0
  0
LINE
  5
75
  8
0
 10
591.5000000100372
 20
211.0833752187223
 30
0.0
 11
591.5000000078821
 21
195.0833752187218
 31
0.0
  0
LINE
  5
76
  8
0
 10
587.0000000100372
 20
211.0833752193298
 30
0.0
 11
591.5000000100372
 21
211.0833752187223
 31
0.0
  0
LINE
  5
77
  8
0
 10
587.0000000078821
 20
195.083375219328
 30
0.0
 11
591.5000000078821
 21
195.0833752187218
 31
0.0
  0
LINE
  5
78
  8
0
 10
525.0000000023597
 20
154.0833752276808
 30
0.0
 11
525.0000000017535
 21
149.5833752276812
 31
0.0
  0
LINE
  5
79
  8
0
 10
541.0000000023601
 20
154.0833752255257
 30
0.0
 11
541.000000001754
 21
149.5833752255262
 31
0.0
  0
LINE
  5
7A
  8
0
 10
541.0000000155601
 20
252.083375225528
 30
0.0
 11
525.0000000155596
 21
252.0833752276831
 31
0.0
  0
LINE
  5
7B
  8
0
 10
541.0000000161658
 20
256.5833752255276
 30
0.0
 11
525.0000000161654
 21
256.5833752276826
 31
0.0
  0
LINE
  5
7C
  8
0
 10
525.0000000155596
 20
252.0833752276831
 30
0.0
 11
525.0000000161654
 21
256.5833752276826
 31
0.0
  0
LINE
  5
7D
  8
0
 10
541.0000000155601
 20
252.083375225528
 30
0.0
 11
541.0000000161658
 21
256.5833752255276
 31
0.0
  0
LINE
  5
7E
  8
0
 10
479.0000000100358
 20
211.0833752338763
 30
0.0
 11
479.0000000078821
 21
195.0833752338744
 31
0.0
  0
LINE
  5
7F
  8
0
 10
474.5000000100372
 20
211.0833752344811
 30
0.0
 11
474.5000000078821
 21
195.0833752344806
 31
0.0
  0
LINE
  5
80
  8
0
 10
479.0000000100358
 20
211.0833752338763
 30
0.0
 11
474.5000000100372
 21
211.0833752344811
 31
0.0
  0
LINE
  5
81
  8
0
 10
479.0000000078821
 20
195.0833752338744
 30
0.0
 11
474.5000000078821
 21
195.0833752344806
 31
0.0
  0
ARC
  5
82
  8
0
 10
318.0000000047844
 20
172.0833752555623
 30
0.0
 40
50.0
 50
269.9999999922829
 51
0.0000000025729037
  0
ARC
  5
83
  8
0
 10
138.3282572397052
 20
-117.2041948570859
 30
0.0
 40
140.7928307928838
 50
94.38647737453995
 51
123.6478755676566
  0
ARC
  5
84
  8
0
 10
375.8007290253649
 20
2547.952975452544
 30
0.0
 40
2526.56337053626
 50
271.1538435775058
 51
276.0023140820483
  0
ARC
  5
85
  8
0
 10
589.3820183303328
 20
270.7214829922705
 30
0.0
 40
5.0
 50
205.2591718749634
 51
267.8292345945949
  0
CIRCLE
  5
86
  8
0
 10
948.0000000341238
 20
207.1531533679649
 30
0.0
 40
8.0
  0
CIRCLE
  5
87
  8
0
 10
443.000000008959
 20
203.0833752387271
 30
0.0
 40
8.0
  0
CIRCLE
  5
88
  8
0
 10
625.000000008959
 20
203.0833752142134
 30
0.0
 40
3.0
  0
CIRCLE
  5
89
  8
0
 10
40.00000000387581
 20
62.08337529300752
 30
0.0
 40
5.0
  0
ENDSEC
  0
EOF
